<svg width="309" height="108" viewBox="0 0 309 108" fill="none" xmlns="http://www.w3.org/2000/svg">
<g clip-path="url(#clip0_1219_123)">
<path d="M43.7882 3.36035V53.6442H31.4716V32.948H12.3166V53.6442H0V3.36035H12.3166V23.0576H31.4716V3.36035H43.7882Z" fill="white"/>
<path d="M63.4834 50.854C59.558 48.6921 56.2967 45.5102 54.0479 41.6482C51.7566 37.5969 50.553 33.027 50.553 28.3787C50.553 23.7304 51.7566 19.1605 54.0479 15.1093C56.3071 11.2686 59.567 8.10593 63.4834 5.95515C67.4969 3.79228 71.9895 2.65955 76.5542 2.65955C81.119 2.65955 85.6116 3.79228 89.6251 5.95515C93.5308 8.09521 96.7699 11.2619 98.9885 15.1093C101.238 19.1755 102.414 23.7424 102.408 28.3833C102.401 33.0243 101.213 37.588 98.9525 41.6482C96.731 45.5065 93.4937 48.6893 89.589 50.854C85.5811 53.0141 81.0947 54.1454 76.5362 54.1454C71.9777 54.1454 67.4913 53.0141 63.4834 50.854V50.854ZM86.2318 38.9617C88.6567 36.2871 89.8691 32.7528 89.8691 28.3588C89.8691 23.9171 88.6567 20.3709 86.2318 17.7202C83.8069 15.0695 80.5777 13.7428 76.5442 13.7401C72.4627 13.7401 69.2108 15.0522 66.7886 17.6764C64.3664 20.3006 63.1539 23.8587 63.1513 28.3509C63.1513 32.7926 64.3637 36.3388 66.7886 38.9895C69.2135 41.6402 72.4654 42.9669 76.5442 42.9696C80.583 42.9722 83.8122 41.6362 86.2318 38.9617Z" fill="white"/>
<path d="M121.349 3.36035V33.4455C121.349 36.4544 122.093 38.7708 123.582 40.3946C125.07 42.0185 127.255 42.8304 130.136 42.8304C133.017 42.8304 135.226 42.0185 136.763 40.3946C138.299 38.7708 139.062 36.4544 139.051 33.4455V3.36035H151.368V33.3699C151.368 37.8594 150.408 41.6563 148.487 44.7608C146.642 47.795 143.953 50.2323 140.744 51.7776C137.363 53.385 133.655 54.1941 129.908 54.1417C126.209 54.205 122.546 53.4077 119.212 51.8134C116.075 50.2723 113.477 47.8271 111.757 44.7966C109.946 41.6709 109.04 37.862 109.04 33.3699V3.36035H121.349Z" fill="white"/>
<path d="M168.374 52.3546C165.585 51.27 163.154 49.436 161.352 47.0571C159.599 44.7169 158.676 41.899 158.583 38.6035H171.687C171.879 40.4609 172.528 41.8817 173.632 42.8661C174.736 43.8505 176.177 44.3401 177.954 44.3348C179.778 44.3348 181.219 43.9169 182.275 43.0811C182.799 42.669 183.217 42.1392 183.496 41.5352C183.774 40.9312 183.904 40.2703 183.876 39.6065C183.893 39.034 183.79 38.4643 183.573 37.9338C183.356 37.4033 183.03 36.9238 182.615 36.5259C181.714 35.6804 180.664 35.006 179.518 34.5359C177.812 33.8433 176.069 33.2454 174.296 32.7449C171.557 31.9433 168.881 30.9374 166.293 29.736C164.187 28.6983 162.359 27.1755 160.963 25.2943C159.475 23.3361 158.732 20.7822 158.735 17.6327C158.735 12.9521 160.438 9.28651 163.844 6.63581C167.251 3.9851 171.693 2.65842 177.169 2.65576C182.739 2.65576 187.228 3.98244 190.634 6.63581C194.041 9.28917 195.866 12.9773 196.108 17.7003H182.779C182.767 16.972 182.6 16.2545 182.29 15.5947C181.98 14.9349 181.533 14.3477 180.979 13.8715C179.78 12.9077 178.269 12.4111 176.729 12.4745C175.422 12.4164 174.139 12.8417 173.128 13.6685C172.216 14.4646 171.759 15.5989 171.759 17.0715C171.759 18.6953 172.528 19.9597 174.064 20.8645C175.601 21.7693 178.002 22.7484 181.267 23.8017C183.983 24.6839 186.64 25.7368 189.222 26.9539C191.301 27.99 193.112 29.488 194.516 31.332C196.004 33.2424 196.749 35.7021 196.749 38.711C196.776 41.4635 196.014 44.1668 194.552 46.5039C192.995 48.9182 190.788 50.8489 188.181 52.076C185.396 53.4663 182.107 54.1588 178.314 54.1535C174.914 54.2058 171.537 53.5947 168.374 52.3546Z" fill="white"/>
<path d="M216.624 13.1751V23.3441H233.118L229.485 32.8007H216.624V43.8334H235.279L231.533 53.6442H204.323V3.36035H235.291L231.485 13.1751H216.624Z" fill="white"/>
<path d="M29.9162 64.7003C33.4487 66.5141 36.3776 69.3066 38.3489 72.7404C40.3326 76.2019 41.3245 80.1854 41.3245 84.6907C41.3245 89.1587 40.3326 93.1302 38.3489 96.605C36.3879 100.056 33.4572 102.862 29.9162 104.681C26.27 106.59 22.0469 107.545 17.247 107.545H0V61.8325H17.2189C22.0617 61.8325 26.2941 62.7884 29.9162 64.7003ZM26.3784 94.4562C28.7369 92.1556 29.9162 88.9004 29.9162 84.6907C29.9162 80.4809 28.7369 77.2031 26.3784 74.8572C24.0226 72.5114 20.7285 71.3384 16.4961 71.3384H11.1955V97.9071H16.5001C20.7325 97.9071 24.0266 96.7568 26.3825 94.4562H26.3784Z" fill="white"/>
<path d="M71.0318 107.545L61.4746 90.2904H58.7882V107.545H47.5847V61.8325H66.3737C69.9957 61.8325 73.0837 62.4623 75.6376 63.7217C78.031 64.8372 80.0288 66.6474 81.3679 68.914C82.6437 71.1447 83.2993 73.673 83.2672 76.2392C83.3025 79.1491 82.399 81.9936 80.6892 84.3552C78.9625 86.7516 76.4193 88.4451 73.0596 89.4356L83.6648 107.537L71.0318 107.545ZM58.7882 82.4101H65.7271C67.7805 82.4101 69.3198 81.9108 70.3451 80.9123C71.3704 79.9137 71.8831 78.5025 71.8831 76.6786C71.8831 74.9451 71.3704 73.5778 70.3451 72.5766C69.3198 71.5754 67.7805 71.0762 65.7271 71.0788H58.7882V82.4101Z" fill="white"/>
<path d="M118.886 99.4688H101.735L98.9845 107.545H87.267L103.896 61.8325H116.858L133.486 107.545H121.636L118.886 99.4688ZM116.007 90.8735L110.312 74.1383L104.691 90.8735H116.007Z" fill="white"/>
<path d="M139.574 72.5445C141.472 69.0717 144.321 66.205 147.79 64.2768C151.442 62.2653 155.562 61.2434 159.736 61.3132C165.192 61.3132 169.862 62.7457 173.747 65.6108C177.631 68.4759 180.228 72.3821 181.537 77.3294H169.229C168.402 75.5184 167.045 73.9981 165.334 72.9679C163.603 71.957 161.627 71.4389 159.62 71.4701C156.172 71.4701 153.378 72.6683 151.239 75.0648C149.1 77.4612 148.03 80.6565 148.027 84.6506C148.027 88.6446 149.098 91.8399 151.239 94.2364C153.381 96.6328 156.175 97.831 159.62 97.831C161.631 97.8651 163.613 97.3454 165.346 96.3293C167.059 95.3012 168.417 93.7803 169.241 91.9677H181.549C180.24 96.9177 177.643 100.815 173.759 103.658C169.874 106.502 165.204 107.923 159.748 107.92C155.575 107.989 151.456 106.969 147.802 104.96C144.34 103.036 141.492 100.18 139.586 96.7207C137.624 93.2059 136.643 89.1905 136.643 84.6745C136.643 80.1586 137.62 76.1152 139.574 72.5445Z" fill="white"/>
<path d="M199.41 61.8325V89.184C199.41 91.916 200.08 94.0209 201.418 95.4987C202.757 96.9765 204.753 97.7141 207.406 97.7114C210.024 97.7114 212.032 96.9738 213.429 95.4987C214.826 94.0235 215.525 91.9186 215.525 89.184V61.8325H226.721V89.1161C226.721 93.1981 225.847 96.649 224.098 99.4688C222.424 102.231 219.98 104.451 217.063 105.859C213.988 107.321 210.616 108.056 207.209 108.008C203.847 108.067 200.517 107.342 197.487 105.891C194.635 104.486 192.274 102.259 190.713 99.5007C189.053 96.6569 188.223 93.1954 188.223 89.1161V61.8325H199.41Z" fill="white"/>
<path d="M245.759 98.9495H260.412L257.163 107.545H234.555V61.8325H245.747L245.759 98.9495Z" fill="white"/>
<path d="M294.403 99.4688H277.249L274.498 107.545H262.781L279.409 61.8325H292.371L309 107.545H297.15L294.403 99.4688ZM291.52 90.8735L285.826 74.1383L280.204 90.8735H291.52Z" fill="white"/>
<path d="M252.238 53.0963C250.87 52.3429 249.734 51.2341 248.95 49.8883C248.152 48.4761 247.733 46.8833 247.733 45.2633C247.733 43.6432 248.152 42.0504 248.95 40.6382C249.736 39.2975 250.872 38.1936 252.238 37.4437C253.637 36.6899 255.203 36.295 256.794 36.295C258.385 36.295 259.951 36.6899 261.35 37.4437C262.714 38.1899 263.845 39.2951 264.619 40.6382C265.402 42.0557 265.812 43.6475 265.809 45.265C265.807 46.8825 265.393 48.473 264.606 49.8883C263.83 51.2336 262.7 52.3428 261.337 53.0963C259.94 53.8504 258.376 54.2454 256.788 54.2454C255.199 54.2454 253.635 53.8504 252.238 53.0963V53.0963ZM260.171 48.9536C261.015 48.0215 261.437 46.7905 261.437 45.2605C261.437 43.7306 261.015 42.4942 260.171 41.5513C259.325 40.6264 258.199 40.1649 256.793 40.1667C255.387 40.1686 254.254 40.6265 253.393 41.5404C252.553 42.4526 252.132 43.6918 252.132 45.2578C252.132 46.8239 252.553 48.0558 253.393 48.9536C254.238 49.8766 255.371 50.3381 256.793 50.3381C258.199 50.3489 259.324 49.8856 260.171 48.9536Z" fill="white"/>
<path d="M279.661 36.5442V39.9635H272.481V43.6593H277.852L276.553 46.9784H272.481V54.069H268.204V36.5442H279.661Z" fill="white"/>
</g>
<defs>
<clipPath id="clip0_1219_123">
<rect width="309" height="108" fill="white"/>
</clipPath>
</defs>
</svg>
