<svg width="255" height="90" viewBox="0 0 255 90" fill="none" xmlns="http://www.w3.org/2000/svg">
<g clip-path="url(#clip0_1330_339)">
<path d="M72.6128 6.6698V44.7427H63.3777V29.0724H49.0151V44.7427H39.78V6.6698H49.0151V21.5837H63.3777V6.6698H72.6128Z" fill="white"/>
<path d="M87.3804 42.6302C84.4371 40.9933 81.9917 38.5841 80.3056 35.6599C78.5876 32.5925 77.6851 29.1323 77.6851 25.6128C77.6851 22.0933 78.5876 18.6331 80.3056 15.5657C81.9996 12.6577 84.4439 10.2631 87.3804 8.63458C90.3898 6.99695 93.7583 6.13928 97.181 6.13928C100.604 6.13928 103.972 6.99695 106.982 8.63458C109.91 10.2549 112.339 12.6527 114.002 15.5657C115.689 18.6445 116.571 22.1023 116.566 25.6163C116.561 29.1302 115.67 32.5857 113.975 35.6599C112.31 38.5813 109.882 40.9912 106.955 42.6302C103.949 44.2657 100.585 45.1223 97.1675 45.1223C93.7495 45.1223 90.3856 44.2657 87.3804 42.6302ZM104.437 33.6258C106.256 31.6007 107.165 28.9247 107.165 25.5977C107.165 22.2346 106.256 19.5496 104.437 17.5426C102.619 15.5356 100.198 14.5311 97.1735 14.529C94.1132 14.529 91.6749 15.5225 89.8587 17.5094C88.0425 19.4964 87.1334 22.1904 87.1314 25.5917C87.1314 28.9548 88.0405 31.6399 89.8587 33.6469C91.6769 35.6539 94.1152 36.6584 97.1735 36.6604C100.202 36.6624 102.623 35.6509 104.437 33.6258Z" fill="white"/>
<path d="M130.768 6.6698V29.449C130.768 31.7273 131.326 33.4811 132.443 34.7107C133.559 35.9402 135.197 36.5549 137.357 36.5549C139.517 36.5549 141.174 35.9402 142.326 34.7107C143.478 33.4811 144.05 31.7273 144.042 29.449V6.6698H153.277V29.3918C153.277 32.791 152.557 35.666 151.117 38.0165C149.734 40.3139 147.717 42.1593 145.311 43.3294C142.776 44.5464 139.996 45.159 137.186 45.1194C134.413 45.1673 131.666 44.5636 129.166 43.3565C126.814 42.1896 124.866 40.3382 123.577 38.0436C122.218 35.677 121.539 32.7931 121.539 29.3918V6.6698H130.768Z" fill="white"/>
<path d="M166.028 43.7663C163.937 42.9451 162.114 41.5564 160.763 39.7553C159.449 37.9833 158.757 35.8497 158.687 33.3545H168.513C168.657 34.7608 169.143 35.8367 169.971 36.582C170.799 37.3274 171.879 37.698 173.211 37.694C174.579 37.694 175.66 37.3776 176.452 36.7448C176.844 36.4327 177.158 36.0316 177.367 35.5743C177.575 35.117 177.673 34.6165 177.652 34.1139C177.665 33.6805 177.587 33.2491 177.425 32.8474C177.262 32.4458 177.017 32.0827 176.707 31.7815C176.03 31.1413 175.243 30.6306 174.384 30.2747C173.105 29.7503 171.798 29.2976 170.469 28.9186C168.415 28.3117 166.409 27.5501 164.468 26.6404C162.889 25.8547 161.519 24.7017 160.472 23.2773C159.356 21.7946 158.799 19.861 158.801 17.4763C158.801 13.9323 160.078 11.1569 162.632 9.14988C165.186 7.14287 168.517 6.13836 172.623 6.13635C176.8 6.13635 180.165 7.14086 182.719 9.14988C185.274 11.1589 186.642 13.9514 186.824 17.5275H176.83C176.82 16.976 176.695 16.4328 176.463 15.9332C176.23 15.4336 175.895 14.989 175.48 14.6285C174.581 13.8987 173.448 13.5227 172.293 13.5707C171.313 13.5267 170.351 13.8488 169.593 14.4748C168.909 15.0775 168.567 15.9363 168.567 17.0513C168.567 18.2809 169.143 19.2382 170.295 19.9232C171.447 20.6083 173.247 21.3496 175.696 22.1472C177.732 22.8152 179.724 23.6123 181.66 24.5339C183.219 25.3184 184.577 26.4526 185.63 27.8488C186.746 29.2953 187.304 31.1577 187.304 33.4359C187.324 35.52 186.753 37.5668 185.657 39.3364C184.489 41.1644 182.834 42.6262 180.88 43.5553C178.792 44.6081 176.326 45.1324 173.481 45.1284C170.932 45.168 168.4 44.7052 166.028 43.7663Z" fill="white"/>
<path d="M202.206 14.1012V21.8007H214.574L211.85 28.9609H202.206V37.3144H216.194L213.386 44.7427H192.983V6.6698H216.203L213.35 14.1012H202.206Z" fill="white"/>
<path d="M24.6881 53.9166C27.6033 55.4282 30.0203 57.7553 31.6472 60.6167C33.2842 63.5013 34.1027 66.8209 34.1027 70.5753C34.1027 74.2987 33.2842 77.6082 31.6472 80.5039C30.0288 83.3796 27.6103 85.7185 24.6881 87.234C21.6791 88.825 18.1941 89.6204 14.2329 89.6204H0V51.5269H14.2097C18.2062 51.5269 21.699 52.3235 24.6881 53.9166ZM21.7686 78.7133C23.7149 76.7961 24.6881 74.0835 24.6881 70.5753C24.6881 67.0672 23.7149 64.3357 21.7686 62.3808C19.8245 60.4259 17.106 59.4485 13.6133 59.4485H9.23899V81.589H13.6166C17.1094 81.589 19.8278 80.6304 21.7719 78.7133H21.7686Z" fill="white"/>
<path d="M58.6184 89.6204L50.7315 75.2417H48.5145V89.6204H39.2689V51.5269H54.7744C57.7635 51.5269 60.3118 52.0516 62.4194 53.1012C64.3945 54.0308 66.0432 55.5393 67.1482 57.4281C68.2011 59.287 68.7421 61.394 68.7157 63.5324C68.7448 65.9573 67.9991 68.3278 66.5882 70.2957C65.1632 72.2928 63.0645 73.704 60.2919 74.5295L69.0438 89.6138L58.6184 89.6204ZM48.5145 68.6748H54.2408C55.9353 68.6748 57.2056 68.2588 58.0517 67.4267C58.8979 66.5945 59.321 65.4185 59.321 63.8985C59.321 62.454 58.8979 61.3146 58.0517 60.4803C57.2056 59.646 55.9353 59.2299 54.2408 59.2321H48.5145V68.6748Z" fill="white"/>
<path d="M98.1096 82.8904H83.9562L81.6862 89.6204H72.0164L85.739 51.5269H96.4361L110.159 89.6204H100.38L98.1096 82.8904ZM95.7336 75.7277L91.0345 61.7817L86.3952 75.7277H95.7336Z" fill="white"/>
<path d="M115.182 60.4537C116.749 57.5597 119.1 55.1708 121.963 53.5639C124.977 51.8877 128.376 51.0361 131.821 51.0942C136.324 51.0942 140.178 52.288 143.383 54.6756C146.589 57.0632 148.732 60.3183 149.812 64.4411H139.655C138.973 62.9319 137.852 61.665 136.441 60.8065C135.013 59.9641 133.381 59.5323 131.725 59.5583C128.88 59.5583 126.574 60.5569 124.809 62.5539C123.044 64.5509 122.16 67.2137 122.158 70.5421C122.158 73.8705 123.042 76.5332 124.809 78.5302C126.577 80.5273 128.882 81.5258 131.725 81.5258C133.385 81.5542 135.02 81.121 136.451 80.2743C137.864 79.4175 138.985 78.1501 139.665 76.6397H149.822C148.742 80.7647 146.599 84.0121 143.393 86.3819C140.188 88.7517 136.334 89.9355 131.831 89.9333C128.387 89.9909 124.988 89.1405 121.973 87.467C119.115 85.8634 116.765 83.4836 115.192 80.6005C113.573 77.6715 112.763 74.3253 112.763 70.562C112.763 66.7987 113.57 63.4293 115.182 60.4537Z" fill="white"/>
<path d="M164.562 51.5269V74.3198C164.562 76.5964 165.114 78.3505 166.219 79.582C167.324 80.8135 168.971 81.4281 171.16 81.4259C173.321 81.4259 174.977 80.8113 176.131 79.582C177.284 78.3527 177.861 76.5986 177.861 74.3198V51.5269H187.1V74.2632C187.1 77.6648 186.378 80.5406 184.936 82.8904C183.554 85.1924 181.537 87.0423 179.13 88.2159C176.592 89.4338 173.809 90.0466 170.998 90.0065C168.223 90.0555 165.475 89.4513 162.975 88.2425C160.621 87.0717 158.673 85.2159 157.384 82.917C156.015 80.5472 155.33 77.6626 155.33 74.2632V51.5269H164.562Z" fill="white"/>
<path d="M202.811 82.4577H214.903L212.222 89.6204H193.565V51.5269H202.801L202.811 82.4577Z" fill="white"/>
<path d="M242.954 82.8904H228.797L226.528 89.6204H216.858L230.58 51.5269H241.277L255 89.6204H245.221L242.954 82.8904ZM240.575 75.7277L235.876 61.7817L231.236 75.7277H240.575Z" fill="white"/>
<path d="M226.665 44.0011C225.536 43.3732 224.598 42.4492 223.952 41.3277C223.293 40.1509 222.947 38.8236 222.947 37.4735C222.947 36.1234 223.293 34.7961 223.952 33.6193C224.6 32.502 225.538 31.5821 226.665 30.9572C227.82 30.329 229.112 30 230.425 30C231.738 30 233.03 30.329 234.185 30.9572C235.31 31.579 236.244 32.5 236.882 33.6193C237.529 34.8006 237.867 36.1271 237.865 37.475C237.863 38.8229 237.521 40.1483 236.871 41.3277C236.231 42.4488 235.298 43.3731 234.173 44.0011C233.021 44.6295 231.731 44.9587 230.419 44.9587C229.108 44.9587 227.818 44.6295 226.665 44.0011ZM233.211 40.5488C233.908 39.772 234.257 38.7462 234.257 37.4713C234.257 36.1963 233.908 35.1659 233.211 34.3802C232.513 33.6095 231.584 33.2249 230.424 33.2264C229.264 33.2279 228.329 33.6095 227.618 34.3712C226.924 35.1313 226.577 36.1639 226.577 37.469C226.577 38.7741 226.924 39.8006 227.618 40.5488C228.315 41.3179 229.25 41.7025 230.424 41.7025C231.584 41.7116 232.512 41.3255 233.211 40.5488Z" fill="white"/>
<path d="M249.296 30.2076V33.0571H243.37V36.1369H247.803L246.731 38.9028H243.37V44.8117H239.84V30.2076H249.296Z" fill="white"/>
</g>
<defs>
<clipPath id="clip0_1330_339">
<rect width="255" height="90" fill="white"/>
</clipPath>
</defs>
</svg>
